<mxfile host="Electron" modified="2023-05-18T18:58:40.963Z" agent="Mozilla/5.0 (Windows NT 10.0; Win64; x64) AppleWebKit/537.36 (KHTML, like Gecko) draw.io/21.2.8 Chrome/112.0.5615.165 Electron/24.2.0 Safari/537.36" etag="QsBHtaRzGvgMbClDi-MI" version="21.2.8" type="device">
  <diagram id="p1WFtV5cTaJLbCV86L4F" name="Page-1">
    <mxGraphModel dx="1122" dy="534" grid="1" gridSize="10" guides="1" tooltips="1" connect="1" arrows="1" fold="1" page="1" pageScale="1" pageWidth="1169" pageHeight="827" math="0" shadow="0">
      <root>
        <mxCell id="0" />
        <mxCell id="1" parent="0" />
        <mxCell id="Lrtluq5l5MD6FJIpUNIz-151" value=":user.php" style="shape=umlLifeline;perimeter=lifelinePerimeter;whiteSpace=wrap;html=1;container=0;collapsible=0;recursiveResize=0;outlineConnect=0;" parent="1" vertex="1">
          <mxGeometry x="990" y="140" width="156.72" height="450" as="geometry" />
        </mxCell>
        <mxCell id="Lrtluq5l5MD6FJIpUNIz-152" value="enter Product ID" style="html=1;verticalAlign=bottom;endArrow=block;rounded=0;elbow=vertical;" parent="1" edge="1">
          <mxGeometry x="-0.0556" y="3" width="80" relative="1" as="geometry">
            <mxPoint x="199.9" y="210" as="sourcePoint" />
            <mxPoint x="379.9" y="210" as="targetPoint" />
            <mxPoint as="offset" />
          </mxGeometry>
        </mxCell>
        <mxCell id="Lrtluq5l5MD6FJIpUNIz-153" value="" style="shape=umlLifeline;participant=umlActor;perimeter=lifelinePerimeter;whiteSpace=wrap;html=1;container=0;collapsible=0;recursiveResize=0;verticalAlign=top;spacingTop=36;outlineConnect=0;fontFamily=Helvetica;fontSize=12;fontColor=default;align=center;strokeColor=default;fillColor=default;size=50;" parent="1" vertex="1">
          <mxGeometry x="145" y="175.14" width="46.09" height="404.86" as="geometry" />
        </mxCell>
        <mxCell id="Lrtluq5l5MD6FJIpUNIz-154" value="Individual" style="text;html=1;align=center;verticalAlign=middle;resizable=1;points=[];autosize=1;strokeColor=none;fillColor=none;container=0;movable=1;rotatable=1;deletable=1;editable=1;connectable=1;locked=0;" parent="1" vertex="1">
          <mxGeometry x="140" y="140" width="70" height="30" as="geometry" />
        </mxCell>
        <mxCell id="Lrtluq5l5MD6FJIpUNIz-155" value=":generate-recommend-url.php" style="shape=umlLifeline;perimeter=lifelinePerimeter;whiteSpace=wrap;html=1;container=0;collapsible=0;recursiveResize=0;outlineConnect=0;" parent="1" vertex="1">
          <mxGeometry x="289.9" y="140" width="199.75" height="440" as="geometry" />
        </mxCell>
        <mxCell id="Lrtluq5l5MD6FJIpUNIz-156" value="" style="html=1;points=[];perimeter=orthogonalPerimeter;container=0;" parent="1" vertex="1">
          <mxGeometry x="382.09" y="410" width="15.37" height="30" as="geometry" />
        </mxCell>
        <mxCell id="Lrtluq5l5MD6FJIpUNIz-158" value="" style="html=1;points=[];perimeter=orthogonalPerimeter;container=0;" parent="1" vertex="1">
          <mxGeometry x="382.09" y="240" width="15.37" height="40" as="geometry" />
        </mxCell>
        <mxCell id="Lrtluq5l5MD6FJIpUNIz-160" value="&lt;font style=&quot;font-size: 11px;&quot;&gt;:execute_command_recommend.php&lt;/font&gt;" style="shape=umlLifeline;perimeter=lifelinePerimeter;whiteSpace=wrap;html=1;container=0;collapsible=0;recursiveResize=0;outlineConnect=0;" parent="1" vertex="1">
          <mxGeometry x="650" y="140" width="190" height="450" as="geometry" />
        </mxCell>
        <mxCell id="Lrtluq5l5MD6FJIpUNIz-161" value="&lt;font style=&quot;font-size: 14px;&quot;&gt;&lt;b&gt;&lt;u&gt;Generate Recommendation(URL)&lt;/u&gt;&lt;/b&gt;&lt;/font&gt;" style="text;html=1;align=center;verticalAlign=middle;resizable=0;points=[];autosize=1;strokeColor=none;fillColor=none;" parent="1" vertex="1">
          <mxGeometry x="430.56000000000006" y="90" width="240" height="30" as="geometry" />
        </mxCell>
        <mxCell id="Lrtluq5l5MD6FJIpUNIz-163" value="" style="html=1;points=[];perimeter=orthogonalPerimeter;container=0;" parent="1" vertex="1">
          <mxGeometry x="737.3199999999999" y="275.17" width="15.37" height="30" as="geometry" />
        </mxCell>
        <mxCell id="Lrtluq5l5MD6FJIpUNIz-165" value="click generate" style="html=1;verticalAlign=bottom;endArrow=block;rounded=0;elbow=vertical;entryX=-0.377;entryY=0.017;entryDx=0;entryDy=0;entryPerimeter=0;" parent="1" target="Lrtluq5l5MD6FJIpUNIz-158" edge="1">
          <mxGeometry x="-0.012" width="80" relative="1" as="geometry">
            <mxPoint x="191.09" y="240" as="sourcePoint" />
            <mxPoint x="373.28" y="240" as="targetPoint" />
            <mxPoint as="offset" />
          </mxGeometry>
        </mxCell>
        <mxCell id="Lrtluq5l5MD6FJIpUNIz-169" value="" style="html=1;points=[];perimeter=orthogonalPerimeter;container=0;" parent="1" vertex="1">
          <mxGeometry x="737.3199999999999" y="375.17" width="15.37" height="34.83" as="geometry" />
        </mxCell>
        <mxCell id="Lrtluq5l5MD6FJIpUNIz-172" value="" style="html=1;points=[];perimeter=orthogonalPerimeter;container=0;" parent="1" vertex="1">
          <mxGeometry x="1060.68" y="305.17" width="15.37" height="74.83" as="geometry" />
        </mxCell>
        <mxCell id="LUFxXE5ldGn6Un585CN7-3" value="&lt;font style=&quot;font-size: 10px;&quot;&gt;$.ajax({POST, command, command2, command3,&amp;nbsp;command4, command 5&amp;nbsp;&lt;/font&gt;" style="html=1;verticalAlign=bottom;endArrow=block;rounded=0;elbow=vertical;exitX=1.081;exitY=1.015;exitDx=0;exitDy=0;exitPerimeter=0;" parent="1" source="Lrtluq5l5MD6FJIpUNIz-158" edge="1">
          <mxGeometry x="0.0341" width="80" relative="1" as="geometry">
            <mxPoint x="420" y="280" as="sourcePoint" />
            <mxPoint x="730" y="280" as="targetPoint" />
            <mxPoint as="offset" />
          </mxGeometry>
        </mxCell>
        <mxCell id="LUFxXE5ldGn6Un585CN7-5" value="updateRecoForMonth ($user_id)" style="html=1;verticalAlign=bottom;endArrow=block;rounded=0;exitX=0;exitY=0;exitDx=0;exitDy=0;" parent="1" source="LUFxXE5ldGn6Un585CN7-17" edge="1">
          <mxGeometry x="0.0874" width="80" relative="1" as="geometry">
            <mxPoint x="670" y="310" as="sourcePoint" />
            <mxPoint x="1060" y="307" as="targetPoint" />
            <mxPoint as="offset" />
          </mxGeometry>
        </mxCell>
        <mxCell id="LUFxXE5ldGn6Un585CN7-9" value="return(array)" style="html=1;verticalAlign=bottom;endArrow=open;dashed=1;endSize=8;rounded=0;elbow=vertical;entryX=1.372;entryY=0.075;entryDx=0;entryDy=0;entryPerimeter=0;" parent="1" target="Lrtluq5l5MD6FJIpUNIz-169" edge="1">
          <mxGeometry x="0.2" y="20" relative="1" as="geometry">
            <mxPoint x="1060" y="380" as="sourcePoint" />
            <mxPoint x="800" y="370" as="targetPoint" />
            <mxPoint as="offset" />
            <Array as="points">
              <mxPoint x="1000" y="380" />
            </Array>
          </mxGeometry>
        </mxCell>
        <mxCell id="LUFxXE5ldGn6Un585CN7-12" value="display recommenedations" style="html=1;verticalAlign=bottom;endArrow=open;dashed=1;endSize=8;rounded=0;elbow=vertical;" parent="1" edge="1">
          <mxGeometry x="0.0578" y="-5" relative="1" as="geometry">
            <mxPoint x="382.09" y="440.17" as="sourcePoint" />
            <mxPoint x="166.99" y="440" as="targetPoint" />
            <mxPoint as="offset" />
            <Array as="points" />
          </mxGeometry>
        </mxCell>
        <mxCell id="LUFxXE5ldGn6Un585CN7-13" value="&lt;font style=&quot;font-size: 10px;&quot;&gt;userid, product, type, categoryOne, cateogorytTwo, categoryThree,&lt;br&gt;categoryFour, categoryFive)&lt;br&gt;&lt;/font&gt;" style="text;html=1;align=center;verticalAlign=middle;resizable=0;points=[];autosize=1;strokeColor=none;fillColor=none;" parent="1" vertex="1">
          <mxGeometry x="397.46" y="280" width="320" height="40" as="geometry" />
        </mxCell>
        <mxCell id="LUFxXE5ldGn6Un585CN7-17" value="&lt;font style=&quot;font-size: 11px;&quot;&gt;createResultsFromReco ($productid, $results1, $results2, $results3, $results4,$results5, 3, $user_id)&lt;/font&gt;" style="text;whiteSpace=wrap;html=1;" parent="1" vertex="1">
          <mxGeometry x="760" y="305.17" width="270" height="50" as="geometry" />
        </mxCell>
        <mxCell id="LUFxXE5ldGn6Un585CN7-19" value="return(array)" style="html=1;verticalAlign=bottom;endArrow=open;dashed=1;endSize=8;rounded=0;elbow=vertical;" parent="1" edge="1">
          <mxGeometry x="0.2" y="20" relative="1" as="geometry">
            <mxPoint x="737.32" y="410" as="sourcePoint" />
            <mxPoint x="400" y="410" as="targetPoint" />
            <mxPoint as="offset" />
            <Array as="points">
              <mxPoint x="681.4100000000001" y="410" />
            </Array>
          </mxGeometry>
        </mxCell>
      </root>
    </mxGraphModel>
  </diagram>
</mxfile>
